<svg id="重复网格_2" data-name="重复网格 2" xmlns="http://www.w3.org/2000/svg" xmlns:xlink="http://www.w3.org/1999/xlink" width="74.036" height="81" viewBox="0 0 74.036 81">
    <defs>
        <clipPath id="clip-path">
            <rect id="矩形_1" data-name="矩形 1" width="74.036" height="81" fill="none"/>
        </clipPath>
    </defs>
    <g id="重复网格_2-2" data-name="重复网格 2" clip-path="url(#clip-path)">
        <g id="组_2" data-name="组 2" transform="translate(-1641 -413)">
            <path id="联合_2" data-name="联合 2" d="M1344.536,31a2.5,2.5,0,1,1,0-5h1.773L1332.266,1.676A11,11,0,0,1,1327.036,3a10.97,10.97,0,0,1-5.231-1.323L1307.762,26h1.774a2.5,2.5,0,0,1,0,5h-7a2.5,2.5,0,0,1-.559-4.937,2.527,2.527,0,0,1,.144-.29l15.5-26.847a2.5,2.5,0,0,1,.441-.562,10.972,10.972,0,0,1-1.816-4.218,11,11,0,0,1,6.579-12.308,11,11,0,0,1,13.356,4.051,11,11,0,0,1-.172,12.474,2.5,2.5,0,0,1,.441.561l15.5,26.847a2.538,2.538,0,0,1,.144.292,2.5,2.5,0,0,1-.56,4.937Zm-23.5-39a6,6,0,0,0,6,6,6,6,0,0,0,6-6,6,6,0,0,0-6-6A6,6,0,0,0,1321.035-8Zm6.165,36.479a7.184,7.184,0,0,1-1.809-5.177,7.6,7.6,0,0,1,1.828-5.325,6.228,6.228,0,0,1,4.833-2,6.318,6.318,0,0,1,4.189,1.322,4.918,4.918,0,0,1,1.814,3.3h-2.812a2.675,2.675,0,0,0-1.587-1.958,3.893,3.893,0,0,0-1.568-.306,3.406,3.406,0,0,0-2.714,1.247,5.671,5.671,0,0,0-1.062,3.753,4.66,4.66,0,0,0,1.15,3.571,3.775,3.775,0,0,0,2.616,1.049,3.378,3.378,0,0,0,2.356-.83,3.586,3.586,0,0,0,1.132-2.176h-3.163V22.662h5.7V30h-1.893l-.287-1.706a6.558,6.558,0,0,1-1.485,1.372,5.213,5.213,0,0,1-2.783.7A5.782,5.782,0,0,1,1327.2,28.479ZM1314.629,30a6.33,6.33,0,0,1,.622-2.644,7.476,7.476,0,0,1,2.672-2.848,19.537,19.537,0,0,0,2.365-1.874,2.77,2.77,0,0,0,.826-1.931,2.137,2.137,0,0,0-.473-1.419,1.93,1.93,0,0,0-3,.334,4.452,4.452,0,0,0-.3,1.652h-2.57a6.518,6.518,0,0,1,.622-2.774,3.872,3.872,0,0,1,3.757-2.013,4.764,4.764,0,0,1,3.4,1.183,4.091,4.091,0,0,1,1.262,3.131,4.238,4.238,0,0,1-.891,2.653A8.88,8.88,0,0,1,1321,25.167l-1.057.752q-.992.7-1.359,1.021a2.985,2.985,0,0,0-.617.733h5.873V30Zm6.907-18a2.5,2.5,0,1,1,0-5h11a2.5,2.5,0,1,1,0,5Zm31.48-6a4.072,4.072,0,0,1,.12-.984l-.1-.049q.45-.9.843-1.846a29.886,29.886,0,0,0-6.243-32.45,28.81,28.81,0,0,0-20.6-8.669,28.81,28.81,0,0,0-20.6,8.669,29.506,29.506,0,0,0-6.241,9.408,30.127,30.127,0,0,0,0,23.044c.035.086.072.171.109.257l-.155.07a4.031,4.031,0,0,1,.9,2.552,3.933,3.933,0,0,1-7.833.576l-.116.051-.085-.2-.079-.193a37.965,37.965,0,0,1,7.93-41.224A36.594,36.594,0,0,1,1327.032-46,36.592,36.592,0,0,1,1353.2-34.987a38.12,38.12,0,0,1,7.928,41.224q-.207.5-.43.993a4,4,0,0,1-.434.932l-.115.236-.032-.016A3.911,3.911,0,0,1,1356.951,10,3.967,3.967,0,0,1,1353.016,6Zm-7.265-3.123A2.5,2.5,0,0,1,1344.036.5a2.479,2.479,0,0,1,.076-.614l-.066-.031c.189-.374.369-.761.536-1.154a18.5,18.5,0,0,0-5.753-21.842,18.5,18.5,0,0,0-22.586,0A18.5,18.5,0,0,0,1310.491-1.3l.069.16-.1.044a2.5,2.5,0,1,1-4.4,1.954l-.074.033-.05-.125-.051-.121a23.507,23.507,0,0,1,7.3-27.766,23.506,23.506,0,0,1,28.708,0,23.508,23.508,0,0,1,7.3,27.766q-.132.311-.274.621a2.471,2.471,0,0,1-.275.583l-.076.149-.021-.01a2.5,2.5,0,0,1-2.795.887Z" transform="translate(351 459)" fill="#29fe8e"/>
        </g>
        <g id="组_3" data-name="组 3" transform="translate(-1641 -413)">
            <path id="减去_17" data-name="减去 17" d="M11,22a11,11,0,1,1,7.778-3.222A11,11,0,0,1,11,22ZM11,5a6,6,0,1,0,6,6,6,6,0,0,0-6-6Z" transform="translate(1667.036 440)" fill="#29fe8e"/>
            <text id="_3G" data-name="3G" transform="translate(1665.036 489)" fill="#29fe8e" font-size="19" font-family="Helvetica-Bold, Helvetica" font-weight="700"><tspan x="0" y="0">2G</tspan></text>
            <rect id="矩形_53" data-name="矩形 53" width="5" height="36" rx="2.5" transform="translate(1669.871 455.76) rotate(30)" fill="#29fe8e"/>
            <rect id="矩形_54" data-name="矩形 54" width="5" height="36" rx="2.5" transform="translate(1704.201 486.936) rotate(150)" fill="#29fe8e"/>
            <rect id="矩形_55" data-name="矩形 55" width="16" height="5" rx="2.5" transform="translate(1670.036 466)" fill="#29fe8e"/>
            <rect id="矩形_57" data-name="矩形 57" width="12" height="5" rx="2.5" transform="translate(1651.036 485)" fill="#29fe8e"/>
            <rect id="矩形_58" data-name="矩形 58" width="12" height="5" rx="2.5" transform="translate(1693.036 485)" fill="#29fe8e"/>
            <path id="联合_6" data-name="联合 6" d="M40,32.5a2.507,2.507,0,0,1,.076-.614l-.065-.031c.189-.373.369-.76.536-1.154a18.5,18.5,0,1,0-34.092,0l.069.161-.1.044a2.5,2.5,0,1,1-4.4,1.954l-.073.033L1.9,32.768l-.051-.121a23.507,23.507,0,1,1,43.306,0q-.132.311-.273.621a2.489,2.489,0,0,1-.276.583L44.531,34h0l-.021-.01A2.5,2.5,0,0,1,40,32.5Z" transform="translate(1655.036 427)" fill="#29fe8e"/>
            <path id="联合_7" data-name="联合 7" d="M62.98,52a4.073,4.073,0,0,1,.12-.983l-.1-.05c.3-.6.581-1.217.843-1.846A29.885,29.885,0,0,0,57.6,16.671a28.81,28.81,0,0,0-41.2,0,29.513,29.513,0,0,0-6.242,9.408,30.129,30.129,0,0,0,0,23.043c.035.086.072.171.109.258l-.155.07a4.023,4.023,0,0,1,.9,2.551,3.933,3.933,0,0,1-7.832.576l-.116.052-.085-.2L2.9,52.236a37.963,37.963,0,0,1,7.93-41.223,36.592,36.592,0,0,1,52.333,0,38.118,38.118,0,0,1,7.928,41.223q-.207.5-.43.993a4.01,4.01,0,0,1-.434.932l-.115.236h0l-.033-.016A3.91,3.91,0,0,1,66.915,56a3.968,3.968,0,0,1-3.935-4Z" transform="translate(1641.036 413)" fill="rgba(41,254,142,0.2)"/>
        </g>
    </g>
</svg>
